{
.appVersion = "983";
copyright = "Copyright 2016 Google Inc. All Rights Reserved.";
customParameters = (
{
name = description;
value = "Designed by Monotype design team.";
},
{
name = license;
value = "This Font Software is licensed under the SIL Open Font License, Version 1.1. This Font Software is distributed on an \"AS IS\" BASIS, WITHOUT WARRANTIES OR CONDITIONS OF ANY KIND, either express or implied. See the SIL Open Font License for the specific language, permissions and limitations governing your use of this Font Software.";
},
{
name = licenseURL;
value = "http://scripts.sil.org/OFL";
},
{
name = vendorID;
value = GOOG;
},
{
name = trademark;
value = "Noto is a trademark of Google Inc.";
},
{
name = fsType;
value = (
);
},
{
name = panose;
value = (
2,
11,
5,
2,
4,
5,
4,
2,
2,
4
);
},
{
name = unicodeRanges;
value = (
84
);
},
{
name = codePageRanges;
value = (
1252
);
}
);
date = "2016-11-10 14:45:26 +0000";
designer = "Monotype Design Team";
designerURL = "http://www.monotype.com/studio";
disablesNiceNames = 1;
familyName = "Noto Sans Tagbanwa";
fontMaster = (
{
ascender = 2189;
capHeight = 1434;
customParameters = (
{
name = typoAscender;
value = 2189;
},
{
name = typoDescender;
value = -600;
},
{
name = typoLineGap;
value = 0;
},
{
name = winAscent;
value = 2189;
},
{
name = winDescent;
value = 600;
},
{
name = hheaAscender;
value = 2189;
},
{
name = hheaDescender;
value = -600;
},
{
name = underlinePosition;
value = -205;
},
{
name = underlineThickness;
value = 102;
}
);
descender = -600;
id = "CBD99C4E-5996-4285-8264-6A945E7B078A";
weightValue = 400;
widthValue = 5;
xHeight = 1024;
}
);
glyphs = (
{
glyphname = .notdef;
lastChange = "2016-11-10 14:45:11 +0000";
layers = (
{
layerId = "CBD99C4E-5996-4285-8264-6A945E7B078A";
paths = (
{
closed = 1;
nodes = (
"1034 0 LINE",
"1034 1462 LINE",
"193 1462 LINE",
"193 0 LINE"
);
},
{
closed = 1;
nodes = (
"297 1358 LINE",
"930 1358 LINE",
"930 104 LINE",
"297 104 LINE"
);
}
);
width = 1229;
}
);
note = .notdef;
},
{
glyphname = uni1760;
lastChange = "2016-11-10 14:45:08 +0000";
layers = (
{
layerId = "CBD99C4E-5996-4285-8264-6A945E7B078A";
paths = (
{
closed = 1;
nodes = (
"416 -104 LINE",
"364 -99 OFFCURVE",
"338 -84 OFFCURVE",
"338 -57 CURVE SMOOTH",
"338 -16 OFFCURVE",
"377 12 OFFCURVE",
"416 35 CURVE",
"448 12 OFFCURVE",
"490 0 OFFCURVE",
"541 0 CURVE SMOOTH",
"610 0 OFFCURVE",
"683 33 OFFCURVE",
"758 100 CURVE SMOOTH",
"833 166 OFFCURVE",
"922 278 OFFCURVE",
"1025 435 CURVE SMOOTH",
"1112 567 LINE SMOOTH",
"1169 654 OFFCURVE",
"1218 733 OFFCURVE",
"1259 806 CURVE SMOOTH",
"1350 969 OFFCURVE",
"1409 1068 OFFCURVE",
"1436 1105 CURVE SMOOTH",
"1463 1141 OFFCURVE",
"1486 1159 OFFCURVE",
"1507 1159 CURVE SMOOTH",
"1540 1159 OFFCURVE",
"1548 1137 OFFCURVE",
"1548 1094 CURVE",
"1688 1094 LINE",
"1688 1230 OFFCURVE",
"1629 1298 OFFCURVE",
"1511 1298 CURVE SMOOTH",
"1439 1298 OFFCURVE",
"1391 1268 OFFCURVE",
"1336 1201 CURVE SMOOTH",
"1309 1167 OFFCURVE",
"1266 1100 OFFCURVE",
"1208 1001 CURVE SMOOTH",
"1115 843 OFFCURVE",
"1042 724 OFFCURVE",
"987 643 CURVE SMOOTH",
"910 528 LINE SMOOTH",
"819 390 OFFCURVE",
"745 292 OFFCURVE",
"688 233 CURVE SMOOTH",
"631 174 OFFCURVE",
"582 145 OFFCURVE",
"541 145 CURVE SMOOTH",
"515 145 OFFCURVE",
"502 165 OFFCURVE",
"502 205 CURVE SMOOTH",
"502 248 OFFCURVE",
"531 373 OFFCURVE",
"559 469 CURVE SMOOTH",
"597 594 OFFCURVE",
"616 682 OFFCURVE",
"616 733 CURVE SMOOTH",
"616 811 OFFCURVE",
"568 850 OFFCURVE",
"473 850 CURVE SMOOTH",
"340 850 OFFCURVE",
"178 789 OFFCURVE",
"47 694 CURVE",
"123 584 LINE",
"217 636 OFFCURVE",
"284 669 OFFCURVE",
"323 684 CURVE SMOOTH",
"362 698 OFFCURVE",
"395 705 OFFCURVE",
"424 705 CURVE SMOOTH",
"451 705 OFFCURVE",
"455 694 OFFCURVE",
"455 678 CURVE SMOOTH",
"455 666 OFFCURVE",
"433 581 OFFCURVE",
"390 424 CURVE SMOOTH",
"361 319 OFFCURVE",
"346 239 OFFCURVE",
"346 184 CURVE SMOOTH",
"346 168 LINE",
"348 152 LINE",
"243 96 OFFCURVE",
"190 28 OFFCURVE",
"190 -53 CURVE SMOOTH",
"190 -150 OFFCURVE",
"254 -213 OFFCURVE",
"383 -242 CURVE"
);
}
);
width = 1649;
}
);
note = uni1760;
unicode = 1760;
},
{
glyphname = uni1761;
lastChange = "2016-11-10 14:45:08 +0000";
layers = (
{
layerId = "CBD99C4E-5996-4285-8264-6A945E7B078A";
paths = (
{
closed = 1;
nodes = (
"623 0 OFFCURVE",
"699 18 OFFCURVE",
"769 54 CURVE SMOOTH",
"909 125 OFFCURVE",
"1028 252 OFFCURVE",
"1208 541 CURVE SMOOTH",
"1296 681 OFFCURVE",
"1364 780 OFFCURVE",
"1413 837 CURVE SMOOTH",
"1510 951 OFFCURVE",
"1601 1008 OFFCURVE",
"1702 1008 CURVE SMOOTH",
"1734 1008 OFFCURVE",
"1765 1004 OFFCURVE",
"1796 997 CURVE",
"1821 1135 LINE",
"1765 1143 OFFCURVE",
"1731 1147 OFFCURVE",
"1718 1147 CURVE SMOOTH",
"1694 1147 LINE SMOOTH",
"1486 1147 OFFCURVE",
"1309 999 OFFCURVE",
"1133 702 CURVE SMOOTH",
"1009 490 OFFCURVE",
"905 344 OFFCURVE",
"822 265 CURVE SMOOTH",
"739 185 OFFCURVE",
"653 145 OFFCURVE",
"565 145 CURVE SMOOTH",
"523 145 OFFCURVE",
"502 172 OFFCURVE",
"502 225 CURVE SMOOTH",
"502 266 OFFCURVE",
"534 390 OFFCURVE",
"598 598 CURVE SMOOTH",
"627 691 OFFCURVE",
"647 762 OFFCURVE",
"660 812 CURVE SMOOTH",
"672 861 OFFCURVE",
"678 901 OFFCURVE",
"678 932 CURVE SMOOTH",
"678 1010 OFFCURVE",
"630 1049 OFFCURVE",
"535 1049 CURVE SMOOTH",
"404 1049 OFFCURVE",
"244 990 OFFCURVE",
"109 893 CURVE",
"186 782 LINE",
"267 827 LINE SMOOTH",
"361 880 OFFCURVE",
"433 907 OFFCURVE",
"483 907 CURVE SMOOTH",
"510 907 OFFCURVE",
"514 897 OFFCURVE",
"514 881 CURVE SMOOTH",
"514 872 OFFCURVE",
"504 831 OFFCURVE",
"483 758 CURVE SMOOTH",
"467 700 LINE",
"433 589 LINE SMOOTH",
"372 404 OFFCURVE",
"342 269 OFFCURVE",
"342 184 CURVE SMOOTH",
"342 72 OFFCURVE",
"422 0 OFFCURVE",
"541 0 CURVE SMOOTH"
);
},
{
closed = 1;
nodes = (
"1371 1266 OFFCURVE",
"1502 1315 OFFCURVE",
"1638 1331 CURVE",
"1622 1470 LINE",
"1434 1453 OFFCURVE",
"1280 1392 OFFCURVE",
"1188 1311 CURVE",
"1276 1194 LINE"
);
}
);
width = 1880;
}
);
note = uni1761;
unicode = 1761;
},
{
glyphname = uni1762;
lastChange = "2016-11-10 14:45:08 +0000";
layers = (
{
layerId = "CBD99C4E-5996-4285-8264-6A945E7B078A";
paths = (
{
closed = 1;
nodes = (
"532 55 LINE SMOOTH",
"579 100 OFFCURVE",
"602 146 OFFCURVE",
"602 193 CURVE SMOOTH",
"602 261 OFFCURVE",
"560 303 OFFCURVE",
"492 338 CURVE SMOOTH",
"362 403 LINE",
"347 412 OFFCURVE",
"340 421 OFFCURVE",
"340 430 CURVE SMOOTH",
"340 441 OFFCURVE",
"357 454 OFFCURVE",
"390 468 CURVE",
"547 545 LINE SMOOTH",
"608 576 OFFCURVE",
"639 618 OFFCURVE",
"639 672 CURVE SMOOTH",
"639 713 OFFCURVE",
"623 744 OFFCURVE",
"563 784 CURVE SMOOTH",
"387 900 LINE",
"365 912 OFFCURVE",
"354 922 OFFCURVE",
"354 930 CURVE SMOOTH",
"354 942 OFFCURVE",
"362 946 OFFCURVE",
"377 954 CURVE SMOOTH",
"563 1055 LINE SMOOTH",
"611 1083 OFFCURVE",
"635 1125 OFFCURVE",
"635 1180 CURVE SMOOTH",
"635 1229 OFFCURVE",
"594 1281 OFFCURVE",
"547 1298 CURVE",
"470 1338 OFFCURVE",
"360 1378 OFFCURVE",
"217 1417 CURVE",
"164 1284 LINE",
"302 1238 LINE SMOOTH",
"360 1219 OFFCURVE",
"400 1204 OFFCURVE",
"422 1194 CURVE",
"440 1187 OFFCURVE",
"449 1179 OFFCURVE",
"449 1169 CURVE SMOOTH",
"449 1154 OFFCURVE",
"430 1145 OFFCURVE",
"418 1137 CURVE",
"256 1047 LINE SMOOTH",
"204 1016 OFFCURVE",
"178 977 OFFCURVE",
"178 928 CURVE SMOOTH",
"178 883 OFFCURVE",
"197 848 OFFCURVE",
"236 825 CURVE",
"401 719 LINE SMOOTH",
"436 698 OFFCURVE",
"453 683 OFFCURVE",
"453 672 CURVE SMOOTH",
"453 661 OFFCURVE",
"444 651 OFFCURVE",
"426 643 CURVE",
"270 567 LINE SMOOTH",
"201 532 OFFCURVE",
"166 485 OFFCURVE",
"166 424 CURVE SMOOTH",
"166 369 OFFCURVE",
"197 326 OFFCURVE",
"260 295 CURVE SMOOTH",
"385 229 LINE",
"418 210 OFFCURVE",
"434 194 OFFCURVE",
"434 180 CURVE SMOOTH",
"434 160 OFFCURVE",
"408 138 OFFCURVE",
"393 123 CURVE",
"229 -20 LINE",
"338 -123 LINE"
);
}
);
width = 803;
}
);
note = uni1762;
unicode = 1762;
},
{
glyphname = uni1763;
lastChange = "2016-11-10 14:45:08 +0000";
layers = (
{
layerId = "CBD99C4E-5996-4285-8264-6A945E7B078A";
paths = (
{
closed = 1;
nodes = (
"290 225 OFFCURVE",
"398 430 OFFCURVE",
"545 629 CURVE",
"735 458 OFFCURVE",
"947 320 OFFCURVE",
"1180 215 CURVE",
"1237 346 LINE",
"1018 448 OFFCURVE",
"818 580 OFFCURVE",
"635 741 CURVE",
"761 893 OFFCURVE",
"912 1041 OFFCURVE",
"1087 1186 CURVE",
"977 1303 LINE",
"799 1152 OFFCURVE",
"647 1001 OFFCURVE",
"522 848 CURVE",
"407 961 OFFCURVE",
"292 1096 OFFCURVE",
"178 1255 CURVE",
"59 1165 LINE",
"182 1001 OFFCURVE",
"307 857 OFFCURVE",
"432 733 CURVE",
"271 516 OFFCURVE",
"149 296 OFFCURVE",
"68 74 CURVE",
"219 16 LINE"
);
}
);
width = 1288;
}
);
note = uni1763;
unicode = 1763;
},
{
glyphname = uni1764;
lastChange = "2016-11-10 14:45:08 +0000";
layers = (
{
layerId = "CBD99C4E-5996-4285-8264-6A945E7B078A";
paths = (
{
closed = 1;
nodes = (
"860 2 LINE",
"828 103 LINE",
"823 116 OFFCURVE",
"821 127 OFFCURVE",
"821 135 CURVE SMOOTH",
"821 154 OFFCURVE",
"833 170 OFFCURVE",
"856 184 CURVE SMOOTH",
"932 233 LINE SMOOTH",
"987 270 OFFCURVE",
"1012 304 OFFCURVE",
"1012 369 CURVE SMOOTH",
"1012 408 OFFCURVE",
"989 442 OFFCURVE",
"944 473 CURVE SMOOTH",
"868 524 LINE SMOOTH",
"845 539 OFFCURVE",
"834 552 OFFCURVE",
"834 561 CURVE SMOOTH",
"834 573 OFFCURVE",
"841 585 OFFCURVE",
"856 598 CURVE SMOOTH",
"965 688 LINE",
"995 715 OFFCURVE",
"1010 749 OFFCURVE",
"1010 791 CURVE SMOOTH",
"1010 837 OFFCURVE",
"987 874 OFFCURVE",
"942 901 CURVE SMOOTH",
"864 951 LINE",
"839 965 OFFCURVE",
"827 978 OFFCURVE",
"827 989 CURVE SMOOTH",
"827 998 OFFCURVE",
"830 1006 OFFCURVE",
"836 1014 CURVE",
"842 1021 OFFCURVE",
"871 1049 OFFCURVE",
"922 1098 CURVE SMOOTH",
"946 1120 OFFCURVE",
"958 1144 OFFCURVE",
"958 1171 CURVE SMOOTH",
"958 1195 OFFCURVE",
"949 1216 OFFCURVE",
"930 1233 CURVE",
"1105 1211 OFFCURVE",
"1275 1139 OFFCURVE",
"1438 1016 CURVE",
"1530 1130 LINE",
"1313 1297 OFFCURVE",
"1076 1380 OFFCURVE",
"819 1380 CURVE SMOOTH",
"559 1380 OFFCURVE",
"320 1297 OFFCURVE",
"102 1130 CURVE",
"195 1016 LINE",
"374 1149 OFFCURVE",
"563 1223 OFFCURVE",
"764 1237 CURVE",
"782 1219 OFFCURVE",
"791 1203 OFFCURVE",
"791 1188 CURVE SMOOTH",
"791 1172 OFFCURVE",
"781 1155 OFFCURVE",
"760 1137 CURVE",
"700 1079 LINE SMOOTH",
"677 1056 OFFCURVE",
"659 1018 OFFCURVE",
"659 981 CURVE SMOOTH",
"659 936 OFFCURVE",
"681 899 OFFCURVE",
"725 872 CURVE SMOOTH",
"786 836 LINE",
"789 834 OFFCURVE",
"793 831 OFFCURVE",
"799 828 CURVE",
"804 824 OFFCURVE",
"810 820 OFFCURVE",
"816 816 CURVE",
"828 807 OFFCURVE",
"838 795 OFFCURVE",
"838 786 CURVE SMOOTH",
"838 773 OFFCURVE",
"831 761 OFFCURVE",
"817 750 CURVE",
"731 676 LINE SMOOTH",
"683 636 OFFCURVE",
"659 594 OFFCURVE",
"659 549 CURVE SMOOTH",
"659 506 OFFCURVE",
"677 473 OFFCURVE",
"729 438 CURVE",
"791 401 LINE SMOOTH",
"821 383 OFFCURVE",
"836 367 OFFCURVE",
"836 352 CURVE SMOOTH",
"836 342 OFFCURVE",
"828 331 OFFCURVE",
"811 319 CURVE",
"735 272 LINE SMOOTH",
"692 244 OFFCURVE",
"670 209 OFFCURVE",
"670 168 CURVE SMOOTH",
"670 127 OFFCURVE",
"680 87 OFFCURVE",
"705 2 CURVE"
);
}
);
width = 1632;
}
);
note = uni1764;
unicode = 1764;
},
{
glyphname = uni1765;
lastChange = "2016-11-10 14:45:08 +0000";
layers = (
{
layerId = "CBD99C4E-5996-4285-8264-6A945E7B078A";
paths = (
{
closed = 1;
nodes = (
"582 524 LINE",
"1006 524 LINE SMOOTH",
"1111 524 OFFCURVE",
"1203 551 OFFCURVE",
"1350 651 CURVE SMOOTH",
"1395 682 LINE SMOOTH",
"1447 717 OFFCURVE",
"1492 735 OFFCURVE",
"1530 735 CURVE SMOOTH",
"1621 735 OFFCURVE",
"1681 683 OFFCURVE",
"1681 592 CURVE SMOOTH",
"1681 496 OFFCURVE",
"1631 421 OFFCURVE",
"1530 367 CURVE",
"1614 254 LINE",
"1757 338 OFFCURVE",
"1829 448 OFFCURVE",
"1829 584 CURVE SMOOTH",
"1829 759 OFFCURVE",
"1717 874 OFFCURVE",
"1540 874 CURVE SMOOTH",
"1441 874 OFFCURVE",
"1372 838 OFFCURVE",
"1223 737 CURVE SMOOTH",
"1152 688 OFFCURVE",
"1083 664 OFFCURVE",
"1014 664 CURVE SMOOTH",
"590 664 LINE",
"205 1038 LINE",
"104 934 LINE",
"451 598 LINE",
"104 262 LINE",
"205 158 LINE"
);
}
);
width = 1935;
}
);
note = uni1765;
unicode = 1765;
},
{
glyphname = uni1766;
lastChange = "2016-11-10 14:45:08 +0000";
layers = (
{
layerId = "CBD99C4E-5996-4285-8264-6A945E7B078A";
paths = (
{
closed = 1;
nodes = (
"516 0 LINE SMOOTH",
"573 41 OFFCURVE",
"602 89 OFFCURVE",
"602 145 CURVE SMOOTH",
"602 216 OFFCURVE",
"560 264 OFFCURVE",
"477 289 CURVE SMOOTH",
"362 326 LINE",
"347 330 OFFCURVE",
"340 337 OFFCURVE",
"340 348 CURVE SMOOTH",
"340 354 OFFCURVE",
"345 360 OFFCURVE",
"354 367 CURVE",
"363 373 OFFCURVE",
"385 382 OFFCURVE",
"418 393 CURVE SMOOTH",
"547 434 LINE SMOOTH",
"608 454 OFFCURVE",
"639 494 OFFCURVE",
"639 555 CURVE",
"637 578 LINE",
"904 643 OFFCURVE",
"1339 700 OFFCURVE",
"1612 700 CURVE SMOOTH",
"1760 700 OFFCURVE",
"1829 652 OFFCURVE",
"1829 584 CURVE SMOOTH",
"1829 487 OFFCURVE",
"1714 424 OFFCURVE",
"1507 408 CURVE",
"1520 268 LINE",
"1803 292 OFFCURVE",
"1976 414 OFFCURVE",
"1976 590 CURVE SMOOTH",
"1976 747 OFFCURVE",
"1830 848 OFFCURVE",
"1606 848 CURVE SMOOTH",
"1319 848 OFFCURVE",
"792 775 OFFCURVE",
"504 696 CURVE",
"416 742 OFFCURVE",
"369 767 OFFCURVE",
"363 771 CURVE SMOOTH",
"357 775 OFFCURVE",
"354 779 OFFCURVE",
"354 782 CURVE SMOOTH",
"354 789 OFFCURVE",
"362 796 OFFCURVE",
"377 803 CURVE",
"547 872 LINE SMOOTH",
"606 896 OFFCURVE",
"635 936 OFFCURVE",
"635 993 CURVE SMOOTH",
"635 1052 OFFCURVE",
"590 1098 OFFCURVE",
"526 1118 CURVE SMOOTH",
"391 1163 LINE SMOOTH",
"362 1173 OFFCURVE",
"348 1186 OFFCURVE",
"348 1202 CURVE SMOOTH",
"348 1216 OFFCURVE",
"361 1231 OFFCURVE",
"387 1247 CURVE",
"535 1346 LINE",
"434 1468 LINE",
"254 1337 LINE SMOOTH",
"198 1296 OFFCURVE",
"170 1249 OFFCURVE",
"170 1196 CURVE SMOOTH",
"170 1126 OFFCURVE",
"213 1078 OFFCURVE",
"299 1051 CURVE SMOOTH",
"410 1016 LINE SMOOTH",
"413 1015 OFFCURVE",
"416 1013 OFFCURVE",
"421 1012 CURVE",
"425 1010 OFFCURVE",
"429 1008 OFFCURVE",
"434 1006 CURVE",
"442 1001 OFFCURVE",
"449 994 OFFCURVE",
"449 989 CURVE SMOOTH",
"449 981 OFFCURVE",
"439 972 OFFCURVE",
"418 961 CURVE",
"279 903 LINE",
"212 878 OFFCURVE",
"178 837 OFFCURVE",
"178 782 CURVE SMOOTH",
"178 736 OFFCURVE",
"205 699 OFFCURVE",
"258 672 CURVE SMOOTH",
"401 600 LINE SMOOTH",
"436 583 OFFCURVE",
"453 570 OFFCURVE",
"453 561 CURVE SMOOTH",
"453 550 OFFCURVE",
"444 542 OFFCURVE",
"426 537 CURVE",
"287 489 LINE SMOOTH",
"212 465 OFFCURVE",
"166 414 OFFCURVE",
"166 346 CURVE SMOOTH",
"166 280 OFFCURVE",
"203 236 OFFCURVE",
"276 213 CURVE SMOOTH",
"381 178 LINE",
"407 171 OFFCURVE",
"421 159 OFFCURVE",
"424 143 CURVE",
"424 141 LINE SMOOTH",
"424 127 OFFCURVE",
"411 111 OFFCURVE",
"385 94 CURVE SMOOTH",
"221 -12 LINE",
"324 -135 LINE"
);
}
);
width = 2079;
}
);
note = uni1766;
unicode = 1766;
},
{
glyphname = uni1767;
lastChange = "2016-11-10 14:45:08 +0000";
layers = (
{
layerId = "CBD99C4E-5996-4285-8264-6A945E7B078A";
paths = (
{
closed = 1;
nodes = (
"738 0 OFFCURVE",
"860 93 OFFCURVE",
"1055 408 CURVE SMOOTH",
"1148 560 OFFCURVE",
"1218 663 OFFCURVE",
"1264 717 CURVE SMOOTH",
"1355 825 OFFCURVE",
"1440 874 OFFCURVE",
"1548 874 CURVE SMOOTH",
"1576 874 OFFCURVE",
"1606 871 OFFCURVE",
"1638 864 CURVE",
"1642 1006 LINE",
"1596 1011 OFFCURVE",
"1562 1014 OFFCURVE",
"1540 1014 CURVE SMOOTH",
"1332 1014 OFFCURVE",
"1155 866 OFFCURVE",
"979 569 CURVE SMOOTH",
"918 466 OFFCURVE",
"864 383 OFFCURVE",
"818 322 CURVE SMOOTH",
"726 199 OFFCURVE",
"661 147 OFFCURVE",
"573 147 CURVE SMOOTH",
"531 147 OFFCURVE",
"510 174 OFFCURVE",
"510 227 CURVE SMOOTH",
"510 252 OFFCURVE",
"516 293 OFFCURVE",
"529 352 CURVE SMOOTH",
"541 411 OFFCURVE",
"569 513 OFFCURVE",
"612 659 CURVE",
"633 741 LINE",
"846 1074 OFFCURVE",
"1127 1287 OFFCURVE",
"1458 1346 CURVE",
"1458 1487 LINE",
"1109 1431 OFFCURVE",
"817 1243 OFFCURVE",
"600 938 CURVE",
"576 953 OFFCURVE",
"544 961 OFFCURVE",
"504 961 CURVE SMOOTH",
"367 961 OFFCURVE",
"199 902 OFFCURVE",
"74 811 CURVE",
"152 702 LINE",
"244 753 OFFCURVE",
"310 786 OFFCURVE",
"349 800 CURVE SMOOTH",
"388 814 OFFCURVE",
"422 821 OFFCURVE",
"451 821 CURVE SMOOTH",
"478 821 OFFCURVE",
"481 811 OFFCURVE",
"481 795 CURVE SMOOTH",
"481 780 OFFCURVE",
"465 718 OFFCURVE",
"434 608 CURVE SMOOTH",
"402 492 OFFCURVE",
"380 404 OFFCURVE",
"369 343 CURVE SMOOTH",
"358 282 OFFCURVE",
"352 231 OFFCURVE",
"352 190 CURVE SMOOTH",
"352 73 OFFCURVE",
"434 0 OFFCURVE",
"549 0 CURVE SMOOTH"
);
}
);
width = 1649;
}
);
note = uni1767;
unicode = 1767;
},
{
glyphname = uni1768;
lastChange = "2016-11-10 14:45:08 +0000";
layers = (
{
layerId = "CBD99C4E-5996-4285-8264-6A945E7B078A";
paths = (
{
closed = 1;
nodes = (
"893 0 LINE",
"893 1155 LINE",
"1080 1139 OFFCURVE",
"1262 1065 OFFCURVE",
"1438 934 CURVE",
"1530 1049 LINE",
"1314 1215 OFFCURVE",
"1077 1298 OFFCURVE",
"819 1298 CURVE SMOOTH",
"558 1298 OFFCURVE",
"319 1215 OFFCURVE",
"102 1049 CURVE",
"195 934 LINE",
"368 1063 OFFCURVE",
"548 1136 OFFCURVE",
"735 1155 CURVE",
"735 0 LINE"
);
}
);
width = 1632;
}
);
note = uni1768;
unicode = 1768;
},
{
glyphname = uni1769;
lastChange = "2016-11-10 14:45:08 +0000";
layers = (
{
layerId = "CBD99C4E-5996-4285-8264-6A945E7B078A";
paths = (
{
closed = 1;
nodes = (
"683 0 OFFCURVE",
"770 44 OFFCURVE",
"851 133 CURVE SMOOTH",
"932 222 OFFCURVE",
"1023 380 OFFCURVE",
"1124 608 CURVE SMOOTH",
"1135 631 LINE",
"1520 276 LINE",
"1620 385 LINE",
"1200 770 LINE",
"1339 1042 OFFCURVE",
"1457 1130 OFFCURVE",
"1694 1130 CURVE SMOOTH",
"1725 1130 OFFCURVE",
"1756 1127 OFFCURVE",
"1788 1120 CURVE",
"1812 1257 LINE",
"1765 1266 OFFCURVE",
"1731 1270 OFFCURVE",
"1710 1270 CURVE SMOOTH",
"1686 1270 LINE SMOOTH",
"1379 1270 OFFCURVE",
"1190 1117 OFFCURVE",
"1030 758 CURVE SMOOTH",
"951 581 OFFCURVE",
"890 454 OFFCURVE",
"845 375 CURVE SMOOTH",
"755 218 OFFCURVE",
"676 139 OFFCURVE",
"596 139 CURVE SMOOTH",
"549 139 OFFCURVE",
"514 180 OFFCURVE",
"514 231 CURVE SMOOTH",
"514 300 OFFCURVE",
"540 414 OFFCURVE",
"593 575 CURVE SMOOTH",
"652 756 OFFCURVE",
"682 878 OFFCURVE",
"682 940 CURVE SMOOTH",
"682 1018 OFFCURVE",
"634 1057 OFFCURVE",
"539 1057 CURVE SMOOTH",
"399 1057 OFFCURVE",
"233 1000 OFFCURVE",
"106 909 CURVE",
"186 799 LINE",
"267 843 LINE SMOOTH",
"359 893 OFFCURVE",
"432 918 OFFCURVE",
"485 918 CURVE SMOOTH",
"512 918 OFFCURVE",
"516 907 OFFCURVE",
"516 891 CURVE SMOOTH",
"516 874 OFFCURVE",
"501 812 OFFCURVE",
"471 707 CURVE SMOOTH",
"455 655 LINE SMOOTH",
"389 448 OFFCURVE",
"356 302 OFFCURVE",
"356 215 CURVE SMOOTH",
"356 90 OFFCURVE",
"450 0 OFFCURVE",
"590 0 CURVE SMOOTH"
);
}
);
width = 1880;
}
);
note = uni1769;
unicode = 1769;
},
{
glyphname = uni176A;
lastChange = "2016-11-10 14:40:34 +0000";
layers = (
{
layerId = "CBD99C4E-5996-4285-8264-6A945E7B078A";
paths = (
{
closed = 1;
nodes = (
"921 -2 OFFCURVE",
"1066 30 OFFCURVE",
"1201 95 CURVE SMOOTH",
"1470 224 OFFCURVE",
"1645 466 OFFCURVE",
"1645 702 CURVE SMOOTH",
"1645 803 OFFCURVE",
"1616 895 OFFCURVE",
"1557 976 CURVE SMOOTH",
"1439 1139 OFFCURVE",
"1220 1233 OFFCURVE",
"973 1233 CURVE SMOOTH",
"816 1233 OFFCURVE",
"671 1203 OFFCURVE",
"538 1143 CURVE SMOOTH",
"272 1022 OFFCURVE",
"102 787 OFFCURVE",
"102 535 CURVE SMOOTH",
"102 433 OFFCURVE",
"131 342 OFFCURVE",
"188 261 CURVE SMOOTH",
"303 99 OFFCURVE",
"527 -2 OFFCURVE",
"766 -2 CURVE SMOOTH"
);
},
{
closed = 1;
nodes = (
"675 137 OFFCURVE",
"590 154 OFFCURVE",
"512 188 CURVE SMOOTH",
"355 256 OFFCURVE",
"260 380 OFFCURVE",
"260 535 CURVE SMOOTH",
"260 635 OFFCURVE",
"291 728 OFFCURVE",
"353 815 CURVE SMOOTH",
"476 987 OFFCURVE",
"712 1094 OFFCURVE",
"973 1094 CURVE SMOOTH",
"1070 1094 OFFCURVE",
"1157 1078 OFFCURVE",
"1236 1045 CURVE SMOOTH",
"1393 980 OFFCURVE",
"1487 853 OFFCURVE",
"1487 700 CURVE SMOOTH",
"1487 607 OFFCURVE",
"1454 515 OFFCURVE",
"1389 426 CURVE SMOOTH",
"1258 247 OFFCURVE",
"1023 137 OFFCURVE",
"766 137 CURVE SMOOTH"
);
}
);
width = 1747;
}
);
note = uni176A;
unicode = 176A;
},
{
glyphname = uni176B;
lastChange = "2016-11-10 14:40:34 +0000";
layers = (
{
layerId = "CBD99C4E-5996-4285-8264-6A945E7B078A";
paths = (
{
closed = 1;
nodes = (
"807 0 OFFCURVE",
"1008 180 OFFCURVE",
"1225 567 CURVE SMOOTH",
"1318 732 OFFCURVE",
"1387 845 OFFCURVE",
"1433 905 CURVE SMOOTH",
"1525 1025 OFFCURVE",
"1612 1083 OFFCURVE",
"1720 1083 CURVE SMOOTH",
"1748 1083 OFFCURVE",
"1778 1080 OFFCURVE",
"1810 1073 CURVE",
"1833 1210 LINE",
"1788 1219 OFFCURVE",
"1755 1223 OFFCURVE",
"1735 1223 CURVE SMOOTH",
"1712 1223 LINE SMOOTH",
"1536 1223 OFFCURVE",
"1381 1105 OFFCURVE",
"1217 844 CURVE",
"1090 905 OFFCURVE",
"935 936 OFFCURVE",
"754 936 CURVE SMOOTH",
"694 936 LINE",
"699 975 OFFCURVE",
"702 1001 OFFCURVE",
"702 1012 CURVE SMOOTH",
"702 1089 OFFCURVE",
"654 1128 OFFCURVE",
"559 1128 CURVE SMOOTH",
"416 1128 OFFCURVE",
"248 1066 OFFCURVE",
"129 981 CURVE",
"207 870 LINE",
"305 924 OFFCURVE",
"372 957 OFFCURVE",
"407 970 CURVE SMOOTH",
"442 983 OFFCURVE",
"474 989 OFFCURVE",
"502 989 CURVE SMOOTH",
"529 989 OFFCURVE",
"532 979 OFFCURVE",
"532 963 CURVE SMOOTH",
"532 944 OFFCURVE",
"527 913 OFFCURVE",
"517 870 CURVE SMOOTH",
"506 827 OFFCURVE",
"476 729 OFFCURVE",
"426 576 CURVE SMOOTH",
"381 436 OFFCURVE",
"358 316 OFFCURVE",
"358 215 CURVE SMOOTH",
"358 90 OFFCURVE",
"454 0 OFFCURVE",
"578 0 CURVE SMOOTH"
);
},
{
closed = 1;
nodes = (
"545 139 OFFCURVE",
"516 180 OFFCURVE",
"516 231 CURVE SMOOTH",
"516 305 OFFCURVE",
"549 445 OFFCURVE",
"616 650 CURVE SMOOTH",
"659 795 LINE",
"708 797 LINE",
"754 797 LINE SMOOTH",
"913 797 OFFCURVE",
"1043 772 OFFCURVE",
"1145 723 CURVE",
"1135 702 LINE",
"1035 522 OFFCURVE",
"939 383 OFFCURVE",
"848 286 CURVE SMOOTH",
"757 188 OFFCURVE",
"675 139 OFFCURVE",
"602 139 CURVE SMOOTH"
);
}
);
width = 1880;
}
);
note = uni176B;
unicode = 176B;
},
{
glyphname = uni176C;
lastChange = "2016-11-10 14:45:08 +0000";
layers = (
{
layerId = "CBD99C4E-5996-4285-8264-6A945E7B078A";
paths = (
{
closed = 1;
nodes = (
"691 0 OFFCURVE",
"787 52 OFFCURVE",
"880 156 CURVE SMOOTH",
"972 260 OFFCURVE",
"1066 426 OFFCURVE",
"1161 653 CURVE SMOOTH",
"1306 1002 OFFCURVE",
"1445 1159 OFFCURVE",
"1616 1159 CURVE SMOOTH",
"1712 1159 OFFCURVE",
"1782 1087 OFFCURVE",
"1782 999 CURVE SMOOTH",
"1782 867 OFFCURVE",
"1666 774 OFFCURVE",
"1499 774 CURVE",
"1499 635 LINE",
"1580 635 OFFCURVE",
"1654 651 OFFCURVE",
"1720 684 CURVE SMOOTH",
"1852 749 OFFCURVE",
"1929 871 OFFCURVE",
"1929 1006 CURVE SMOOTH",
"1929 1059 OFFCURVE",
"1916 1108 OFFCURVE",
"1891 1153 CURVE SMOOTH",
"1840 1242 OFFCURVE",
"1741 1298 OFFCURVE",
"1608 1298 CURVE SMOOTH",
"1385 1298 OFFCURVE",
"1182 1103 OFFCURVE",
"1042 752 CURVE SMOOTH",
"962 554 OFFCURVE",
"884 402 OFFCURVE",
"808 297 CURVE SMOOTH",
"732 192 OFFCURVE",
"662 139 OFFCURVE",
"598 139 CURVE SMOOTH",
"551 139 OFFCURVE",
"516 180 OFFCURVE",
"516 231 CURVE SMOOTH",
"516 305 OFFCURVE",
"549 445 OFFCURVE",
"616 650 CURVE SMOOTH",
"673 828 OFFCURVE",
"702 949 OFFCURVE",
"702 1012 CURVE SMOOTH",
"702 1089 OFFCURVE",
"654 1128 OFFCURVE",
"559 1128 CURVE SMOOTH",
"416 1128 OFFCURVE",
"248 1066 OFFCURVE",
"129 981 CURVE",
"207 870 LINE",
"305 924 OFFCURVE",
"372 957 OFFCURVE",
"407 970 CURVE SMOOTH",
"442 983 OFFCURVE",
"474 989 OFFCURVE",
"502 989 CURVE SMOOTH",
"529 989 OFFCURVE",
"532 979 OFFCURVE",
"532 963 CURVE SMOOTH",
"532 944 OFFCURVE",
"527 913 OFFCURVE",
"517 870 CURVE SMOOTH",
"506 827 OFFCURVE",
"476 729 OFFCURVE",
"426 576 CURVE SMOOTH",
"381 436 OFFCURVE",
"358 316 OFFCURVE",
"358 215 CURVE SMOOTH",
"358 87 OFFCURVE",
"455 0 OFFCURVE",
"592 0 CURVE SMOOTH"
);
}
);
width = 1927;
}
);
note = uni176C;
unicode = 176C;
},
{
glyphname = uni176E;
lastChange = "2016-11-10 14:45:08 +0000";
layers = (
{
layerId = "CBD99C4E-5996-4285-8264-6A945E7B078A";
paths = (
{
closed = 1;
nodes = (
"686 0 OFFCURVE",
"776 48 OFFCURVE",
"859 143 CURVE SMOOTH",
"942 238 OFFCURVE",
"1038 408 OFFCURVE",
"1145 655 CURVE",
"1145 657 LINE",
"1164 670 OFFCURVE",
"1183 676 OFFCURVE",
"1200 676 CURVE SMOOTH",
"1219 676 OFFCURVE",
"1229 664 OFFCURVE",
"1229 639 CURVE SMOOTH",
"1229 623 LINE SMOOTH",
"1229 499 OFFCURVE",
"1255 471 OFFCURVE",
"1323 471 CURVE SMOOTH",
"1342 471 OFFCURVE",
"1356 473 OFFCURVE",
"1366 476 CURVE SMOOTH",
"1375 479 OFFCURVE",
"1384 481 OFFCURVE",
"1391 481 CURVE SMOOTH",
"1399 481 OFFCURVE",
"1403 477 OFFCURVE",
"1404 470 CURVE SMOOTH",
"1405 463 OFFCURVE",
"1405 453 OFFCURVE",
"1405 440 CURVE SMOOTH",
"1405 408 LINE SMOOTH",
"1405 336 OFFCURVE",
"1440 281 OFFCURVE",
"1509 281 CURVE SMOOTH",
"1528 281 OFFCURVE",
"1540 282 OFFCURVE",
"1547 285 CURVE SMOOTH",
"1554 288 OFFCURVE",
"1560 289 OFFCURVE",
"1565 289 CURVE SMOOTH",
"1581 289 OFFCURVE",
"1583 279 OFFCURVE",
"1583 262 CURVE SMOOTH",
"1583 242 LINE SMOOTH",
"1583 158 OFFCURVE",
"1624 98 OFFCURVE",
"1720 98 CURVE SMOOTH",
"1792 98 LINE",
"1792 223 LINE",
"1743 223 LINE SMOOTH",
"1717 223 OFFCURVE",
"1704 237 OFFCURVE",
"1704 264 CURVE SMOOTH",
"1704 317 LINE SMOOTH",
"1704 391 OFFCURVE",
"1677 428 OFFCURVE",
"1622 428 CURVE SMOOTH",
"1605 428 OFFCURVE",
"1591 426 OFFCURVE",
"1579 422 CURVE SMOOTH",
"1566 418 OFFCURVE",
"1555 416 OFFCURVE",
"1546 416 CURVE SMOOTH",
"1527 416 OFFCURVE",
"1528 432 OFFCURVE",
"1528 453 CURVE SMOOTH",
"1528 510 LINE SMOOTH",
"1528 575 OFFCURVE",
"1499 614 OFFCURVE",
"1444 614 CURVE SMOOTH",
"1431 614 OFFCURVE",
"1418 612 OFFCURVE",
"1407 608 CURVE SMOOTH",
"1395 604 OFFCURVE",
"1383 602 OFFCURVE",
"1372 602 CURVE SMOOTH",
"1349 602 OFFCURVE",
"1350 620 OFFCURVE",
"1350 643 CURVE SMOOTH",
"1350 698 LINE SMOOTH",
"1350 766 OFFCURVE",
"1318 805 OFFCURVE",
"1266 805 CURVE SMOOTH",
"1249 805 OFFCURVE",
"1229 801 OFFCURVE",
"1206 793 CURVE",
"1329 1037 OFFCURVE",
"1444 1112 OFFCURVE",
"1667 1112 CURVE SMOOTH",
"1720 1112 OFFCURVE",
"1777 1105 OFFCURVE",
"1839 1090 CURVE",
"1864 1227 LINE",
"1800 1243 OFFCURVE",
"1728 1251 OFFCURVE",
"1649 1251 CURVE SMOOTH",
"1549 1251 OFFCURVE",
"1463 1235 OFFCURVE",
"1391 1204 CURVE SMOOTH",
"1246 1141 OFFCURVE",
"1145 1023 OFFCURVE",
"1028 758 CURVE SMOOTH",
"950 583 OFFCURVE",
"888 455 OFFCURVE",
"843 376 CURVE SMOOTH",
"752 217 OFFCURVE",
"675 139 OFFCURVE",
"596 139 CURVE SMOOTH",
"549 139 OFFCURVE",
"514 180 OFFCURVE",
"514 231 CURVE SMOOTH",
"514 300 OFFCURVE",
"540 414 OFFCURVE",
"593 575 CURVE SMOOTH",
"652 756 OFFCURVE",
"682 878 OFFCURVE",
"682 940 CURVE SMOOTH",
"682 1018 OFFCURVE",
"634 1057 OFFCURVE",
"539 1057 CURVE SMOOTH",
"402 1057 OFFCURVE",
"234 998 OFFCURVE",
"109 907 CURVE",
"186 799 LINE",
"267 843 LINE SMOOTH",
"359 893 OFFCURVE",
"432 918 OFFCURVE",
"485 918 CURVE SMOOTH",
"512 918 OFFCURVE",
"516 907 OFFCURVE",
"516 891 CURVE SMOOTH",
"516 876 OFFCURVE",
"501 816 OFFCURVE",
"471 711 CURVE SMOOTH",
"455 659 LINE SMOOTH",
"389 452 OFFCURVE",
"356 304 OFFCURVE",
"356 215 CURVE SMOOTH",
"356 90 OFFCURVE",
"450 0 OFFCURVE",
"590 0 CURVE SMOOTH"
);
}
);
width = 1921;
}
);
note = uni176E;
unicode = 176E;
},
{
glyphname = uni176F;
lastChange = "2016-11-10 14:45:08 +0000";
layers = (
{
layerId = "CBD99C4E-5996-4285-8264-6A945E7B078A";
paths = (
{
closed = 1;
nodes = (
"472 0 OFFCURVE",
"624 46 OFFCURVE",
"829 137 CURVE SMOOTH",
"1051 236 OFFCURVE",
"1212 285 OFFCURVE",
"1311 285 CURVE SMOOTH",
"1409 285 OFFCURVE",
"1458 246 OFFCURVE",
"1458 168 CURVE SMOOTH",
"1458 115 OFFCURVE",
"1438 60 OFFCURVE",
"1415 0 CURVE",
"1571 0 LINE",
"1586 45 OFFCURVE",
"1606 96 OFFCURVE",
"1606 172 CURVE SMOOTH",
"1606 324 OFFCURVE",
"1491 424 OFFCURVE",
"1298 424 CURVE SMOOTH",
"1170 424 OFFCURVE",
"1034 388 OFFCURVE",
"774 272 CURVE SMOOTH",
"581 187 OFFCURVE",
"447 145 OFFCURVE",
"373 145 CURVE SMOOTH",
"336 145 OFFCURVE",
"317 168 OFFCURVE",
"317 213 CURVE SMOOTH",
"317 378 OFFCURVE",
"441 635 OFFCURVE",
"629 841 CURVE SMOOTH",
"816 1047 OFFCURVE",
"1024 1159 OFFCURVE",
"1212 1159 CURVE SMOOTH",
"1337 1159 OFFCURVE",
"1422 1104 OFFCURVE",
"1470 977 CURVE",
"1602 1030 LINE",
"1532 1209 OFFCURVE",
"1395 1298 OFFCURVE",
"1190 1298 CURVE SMOOTH",
"959 1298 OFFCURVE",
"706 1159 OFFCURVE",
"498 926 CURVE SMOOTH",
"290 693 OFFCURVE",
"160 417 OFFCURVE",
"160 213 CURVE SMOOTH",
"160 78 OFFCURVE",
"236 0 OFFCURVE",
"373 0 CURVE SMOOTH"
);
}
);
width = 1708;
}
);
note = uni176F;
unicode = 176F;
},
{
glyphname = uni1770;
lastChange = "2016-11-10 14:45:08 +0000";
layers = (
{
layerId = "CBD99C4E-5996-4285-8264-6A945E7B078A";
paths = (
{
closed = 1;
nodes = (
"658 0 OFFCURVE",
"718 20 OFFCURVE",
"774 61 CURVE SMOOTH",
"885 141 OFFCURVE",
"980 280 OFFCURVE",
"1128 608 CURVE SMOOTH",
"1196 757 OFFCURVE",
"1258 871 OFFCURVE",
"1314 951 CURVE SMOOTH",
"1369 1031 OFFCURVE",
"1421 1071 OFFCURVE",
"1468 1071 CURVE SMOOTH",
"1495 1071 OFFCURVE",
"1509 1059 OFFCURVE",
"1509 1034 CURVE SMOOTH",
"1509 1006 OFFCURVE",
"1479 948 OFFCURVE",
"1432 891 CURVE SMOOTH",
"1309 738 OFFCURVE",
"1247 613 OFFCURVE",
"1247 516 CURVE SMOOTH",
"1247 428 OFFCURVE",
"1302 375 OFFCURVE",
"1401 375 CURVE SMOOTH",
"1468 375 OFFCURVE",
"1528 400 OFFCURVE",
"1651 475 CURVE SMOOTH",
"1699 504 OFFCURVE",
"1729 518 OFFCURVE",
"1741 518 CURVE SMOOTH",
"1750 518 OFFCURVE",
"1755 514 OFFCURVE",
"1755 506 CURVE SMOOTH",
"1755 499 OFFCURVE",
"1749 490 OFFCURVE",
"1737 480 CURVE SMOOTH",
"1725 470 OFFCURVE",
"1712 457 OFFCURVE",
"1698 442 CURVE SMOOTH",
"1626 367 OFFCURVE",
"1604 319 OFFCURVE",
"1604 268 CURVE SMOOTH",
"1604 192 OFFCURVE",
"1656 147 OFFCURVE",
"1739 147 CURVE SMOOTH",
"1771 147 OFFCURVE",
"1805 155 OFFCURVE",
"1841 170 CURVE",
"1866 182 OFFCURVE",
"1886 188 OFFCURVE",
"1901 188 CURVE SMOOTH",
"1908 188 OFFCURVE",
"1911 185 OFFCURVE",
"1911 180 CURVE SMOOTH",
"1911 169 OFFCURVE",
"1901 150 OFFCURVE",
"1880 121 CURVE",
"2013 57 LINE",
"2040 99 OFFCURVE",
"2054 141 OFFCURVE",
"2054 182 CURVE SMOOTH",
"2054 271 OFFCURVE",
"2006 315 OFFCURVE",
"1911 315 CURVE SMOOTH",
"1878 315 OFFCURVE",
"1842 308 OFFCURVE",
"1804 293 CURVE",
"1779 282 OFFCURVE",
"1763 276 OFFCURVE",
"1755 276 CURVE SMOOTH",
"1747 276 OFFCURVE",
"1743 280 OFFCURVE",
"1743 289 CURVE SMOOTH",
"1743 297 OFFCURVE",
"1749 308 OFFCURVE",
"1761 322 CURVE SMOOTH",
"1773 336 OFFCURVE",
"1793 358 OFFCURVE",
"1821 387 CURVE SMOOTH",
"1871 438 OFFCURVE",
"1896 488 OFFCURVE",
"1896 537 CURVE SMOOTH",
"1896 606 OFFCURVE",
"1850 653 OFFCURVE",
"1763 653 CURVE SMOOTH",
"1718 653 OFFCURVE",
"1670 637 OFFCURVE",
"1618 606 CURVE SMOOTH",
"1534 554 OFFCURVE",
"1443 516 OFFCURVE",
"1415 516 CURVE SMOOTH",
"1400 516 OFFCURVE",
"1393 524 OFFCURVE",
"1393 539 CURVE SMOOTH",
"1393 584 OFFCURVE",
"1444 672 OFFCURVE",
"1546 801 CURVE SMOOTH",
"1619 890 OFFCURVE",
"1655 973 OFFCURVE",
"1655 1049 CURVE SMOOTH",
"1655 1140 OFFCURVE",
"1585 1210 OFFCURVE",
"1481 1210 CURVE SMOOTH",
"1321 1210 OFFCURVE",
"1186 1081 OFFCURVE",
"1034 750 CURVE SMOOTH",
"950 567 OFFCURVE",
"886 439 OFFCURVE",
"842 364 CURVE SMOOTH",
"753 214 OFFCURVE",
"679 139 OFFCURVE",
"600 139 CURVE SMOOTH",
"553 139 OFFCURVE",
"518 180 OFFCURVE",
"518 231 CURVE SMOOTH",
"518 305 OFFCURVE",
"551 445 OFFCURVE",
"618 650 CURVE SMOOTH",
"676 830 OFFCURVE",
"705 951 OFFCURVE",
"705 1012 CURVE SMOOTH",
"705 1089 OFFCURVE",
"657 1128 OFFCURVE",
"561 1128 CURVE SMOOTH",
"420 1128 OFFCURVE",
"254 1068 OFFCURVE",
"133 981 CURVE",
"209 870 LINE",
"317 930 OFFCURVE",
"415 981 OFFCURVE",
"502 981 CURVE SMOOTH",
"529 981 OFFCURVE",
"532 971 OFFCURVE",
"532 954 CURVE SMOOTH",
"532 912 OFFCURVE",
"510 825 OFFCURVE",
"467 694 CURVE SMOOTH",
"424 561 OFFCURVE",
"398 476 OFFCURVE",
"389 438 CURVE SMOOTH",
"370 361 OFFCURVE",
"360 288 OFFCURVE",
"360 215 CURVE SMOOTH",
"360 87 OFFCURVE",
"457 0 OFFCURVE",
"594 0 CURVE SMOOTH"
);
}
);
width = 2157;
}
);
note = uni1770;
unicode = 1770;
},
{
glyphname = uni1772;
lastChange = "2016-11-10 14:45:08 +0000";
layers = (
{
layerId = "CBD99C4E-5996-4285-8264-6A945E7B078A";
paths = (
{
closed = 1;
nodes = (
"-305 1278 LINE SMOOTH",
"-202 1315 OFFCURVE",
"-160 1371 OFFCURVE",
"-160 1458 CURVE SMOOTH",
"-160 1546 OFFCURVE",
"-208 1606 OFFCURVE",
"-305 1638 CURVE SMOOTH",
"-393 1669 LINE",
"-444 1538 LINE",
"-350 1505 LINE SMOOTH",
"-321 1494 OFFCURVE",
"-307 1477 OFFCURVE",
"-307 1456 CURVE SMOOTH",
"-307 1435 OFFCURVE",
"-322 1419 OFFCURVE",
"-352 1409 CURVE SMOOTH",
"-465 1370 LINE",
"-414 1239 LINE"
);
}
);
width = 0;
}
);
note = uni1772;
unicode = 1772;
},
{
glyphname = uni1773;
lastChange = "2016-11-10 14:45:08 +0000";
layers = (
{
layerId = "CBD99C4E-5996-4285-8264-6A945E7B078A";
paths = (
{
closed = 1;
nodes = (
"-305 -291 LINE SMOOTH",
"-202 -254 OFFCURVE",
"-160 -194 OFFCURVE",
"-160 -102 CURVE SMOOTH",
"-160 -22 OFFCURVE",
"-208 35 OFFCURVE",
"-305 68 CURVE SMOOTH",
"-393 98 LINE",
"-444 -31 LINE",
"-350 -63 LINE SMOOTH",
"-321 -74 OFFCURVE",
"-307 -91 OFFCURVE",
"-307 -113 CURVE SMOOTH",
"-307 -134 OFFCURVE",
"-322 -150 OFFCURVE",
"-352 -160 CURVE SMOOTH",
"-465 -199 LINE",
"-414 -330 LINE"
);
}
);
width = 0;
}
);
note = uni1773;
unicode = 1773;
},
{
glyphname = uni1735;
lastChange = "2016-11-10 14:45:08 +0000";
layers = (
{
layerId = "CBD99C4E-5996-4285-8264-6A945E7B078A";
paths = (
{
closed = 1;
nodes = (
"178 -285 LINE",
"598 1536 LINE",
"455 1536 LINE",
"37 -285 LINE"
);
}
);
width = 674;
}
);
note = uni1735;
unicode = 1735;
},
{
glyphname = uni1736;
lastChange = "2016-11-10 14:45:08 +0000";
layers = (
{
layerId = "CBD99C4E-5996-4285-8264-6A945E7B078A";
paths = (
{
closed = 1;
nodes = (
"504 -285 LINE",
"924 1536 LINE",
"781 1536 LINE",
"363 -285 LINE"
);
},
{
closed = 1;
nodes = (
"178 -285 LINE",
"598 1536 LINE",
"455 1536 LINE",
"37 -285 LINE"
);
}
